<svg xmlns="http://www.w3.org/2000/svg" viewBox="0 0 32 32"><defs><style>.cls-1{fill:#21439b;}</style></defs><title>fav-icon</title><g id="Layer_2" data-name="Layer 2"><g id="Layer_1-2" data-name="Layer 1"><polygon class="cls-1" points="8.75 24.08 8.75 7.93 6.09 5.34 6.09 26.66 19.09 26.66 17.61 24.08 8.75 24.08"/><path class="cls-1" d="M20.88,17.34h0a6.15,6.15,0,0,0,3.61-5.89A5.79,5.79,0,0,0,21.33,6a8.29,8.29,0,0,0-3.9-.67H10.61l1.48,2.58h5.29a5.52,5.52,0,0,1,2.48.33,3.29,3.29,0,0,1,1.9,3.17c0,2.33-1.39,3.84-3.53,3.84l-1.93,0,6.51,11.36h3.09Z"/><path class="cls-1" d="M32,32H0V0H32ZM.85,31.15H31.15V.85H.85Z"/></g></g></svg>