<svg xmlns="http://www.w3.org/2000/svg" viewBox="0 0 183.91 233.85"><defs><style>.cls-1{fill:#4b4a4b;}.cls-2{fill:#21439b;}</style></defs><title>lr-logo</title><g id="Layer_2" data-name="Layer 2"><g id="Layer_1-2" data-name="Layer 1"><polygon class="cls-2" points="62.19 125.94 52.44 125.94 52.44 106.77 50.38 106.77 50.38 127.79 62.19 127.79 62.19 125.94"/><path class="cls-2" d="M76.19,128.15c4.75,0,8-3,8-7.68V106.77H82.14v13.6c0,3.68-2.36,5.86-6,5.86s-5.95-2.18-5.95-5.8V106.77H68.12v13.69C68.12,125.13,71.41,128.15,76.19,128.15Z"/><path class="cls-2" d="M107.39,121.9c0,1.11.18,2.84.18,2.84h-.06s-1-1.79-1.73-2.84L95,106.77H93v21H95.1V112.66c0-1.11-.18-2.84-.18-2.84H95s1,1.79,1.74,2.84l10.73,15.13h2v-21h-2.06Z"/><path class="cls-2" d="M120.47,121.09h8.46l2.42,6.7h2.18l-7.71-21h-2.21l-7.71,21h2.18Zm3.41-9.42c.36-1,.81-2.72.81-2.72h.06s.45,1.73.81,2.72l2.75,7.62h-7.24Z"/><path class="cls-2" d="M51.39,144.53h3.95l3.55,6.6h1.76l-3.41-6.31a6.22,6.22,0,0,0-.4-.62v0a4.57,4.57,0,0,0,.6-8.28,7,7,0,0,0-2.95-.42H49.85v15.69h1.54Zm0-7.7h3.17a4.5,4.5,0,0,1,2.23.38,3.25,3.25,0,0,1-1.67,5.94H51.39Z"/><path class="cls-2" d="M67.53,146.13h6.31l1.81,5h1.63l-5.76-15.69H69.87l-5.76,15.69h1.63Zm2.54-7c.27-.74.6-2,.6-2h0s.33,1.29.6,2l2.05,5.69H68Z"/><path class="cls-2" d="M92.79,146.73c0,.83.13,2.12.13,2.12h0s-.76-1.34-1.3-2.12l-8-11.29h-1.5v15.69h1.54V139.84c0-.83-.13-2.12-.13-2.12h0s.76,1.34,1.29,2.12l8,11.29h1.49V135.44H92.79Z"/><path class="cls-2" d="M106.9,146.73c0,2.43-1.47,3.24-2.86,3.24s-2.88-.87-2.88-3.28v-.58H99.63v.62c0,3.37,2.25,4.66,4.4,4.66s4.42-1.27,4.42-4.66V135.44H106.9Z"/><rect class="cls-2" x="115.05" y="135.44" width="1.54" height="15.69"/><polygon class="cls-2" points="121.26 136.83 126.91 136.83 126.91 151.13 128.44 151.13 128.44 136.83 134.07 136.83 134.07 135.44 121.26 135.44 121.26 136.83"/><polygon class="cls-2" points="72.43 82.12 72.43 38.6 65.25 31.62 65.25 89.07 100.28 89.07 96.29 82.12 72.43 82.12"/><path class="cls-2" d="M105.12,64v0c5.91-2.44,9.73-8.51,9.73-15.87,0-6.58-3.1-11.89-8.49-14.59-2.61-1.3-5.55-1.81-10.51-1.81H77.42l4,7H95.68c4.34,0,5.64.43,6.69.9,3.26,1.47,5.12,4.58,5.12,8.55,0,6.29-3.73,10.35-9.51,10.36l-5.19,0,17.55,30.62h8.33Z"/><path class="cls-2" d="M183.47,183H.45V0h183ZM5.29,178.18H178.62V4.85H5.29Z"/></g></g></svg>